
<svg xmlns="http://www.w3.org/2000/svg" viewBox="0 0 152.78 49.91" preserveAspectRatio="none"><defs><style>.cls-1{fill:#d55657;}</style></defs><title>button_buy</title><g id="Слой_2" data-name="Слой 2"><g id="Слой_1-2" data-name="Слой 1"><path class="cls-1" d="M38.76,49.91H17.31A19.52,19.52,0,0,0,15,49.39C7.3,48.53,2.79,44.06,2.22,35.69,1.66,27.51,1.79,19.25,1.55,11A4.74,4.74,0,0,0,.82,8.56a3.14,3.14,0,0,1,0-4.18A6.66,6.66,0,0,1,3.77,2C7.52,1.17,11.33.2,15.13.16,31.84,0,48.56,0,65.28.09,81.39.2,97.5.39,113.6.85c10.23.29,20.46,1.06,30.68,1.75,4.18.29,5.59,1.85,6.69,6.77a72.16,72.16,0,0,1,.43,30.06c-1.2,6.07-2.55,7.6-7.58,8.51a20.5,20.5,0,0,1-3.21.37q-14.87.24-29.72.4-33.37.39-66.73.76C42.36,49.5,40.56,49.76,38.76,49.91Z"/></g></g></svg>