<svg xmlns="http://www.w3.org/2000/svg" preserveAspectRatio="none" viewBox="0 0 152.78 49.91"><path fill="#d55657" d="M38.76 49.91H17.31a19.52 19.52 0 0 0-2.31-.52c-7.7-.86-12.21-5.33-12.78-13.7-.56-8.18-.43-16.44-.67-24.69a4.74 4.74 0 0 0-.73-2.44 3.14 3.14 0 0 1 0-4.18A6.66 6.66 0 0 1 3.77 2C7.52 1.17 11.33.2 15.13.16 31.84 0 48.56 0 65.28.09 81.39.2 97.5.39 113.6.85c10.23.29 20.46 1.06 30.68 1.75 4.18.29 5.59 1.85 6.69 6.77a72.16 72.16 0 0 1 .43 30.06c-1.2 6.07-2.55 7.6-7.58 8.51a20.5 20.5 0 0 1-3.21.37q-14.87.24-29.72.4-33.37.39-66.73.76c-1.8.03-3.6.29-5.4.44Z"/></svg>